<svg class="icon"
  style="width: 1em;height: 1em;vertical-align: middle;fill: currentColor;overflow: hidden;"
  viewBox="0 0 1024 1024" version="1.1" xmlns="http://www.w3.org/2000/svg" p-id="5118">
  <path
    d="M906.666667 938.666667H832a32.426667 32.426667 0 0 1-32-32 32.426667 32.426667 0 0 1 32-32h42.666667v-42.666667a32.426667 32.426667 0 0 1 32-32 32.426667 32.426667 0 0 1 32 32v74.666667a32.426667 32.426667 0 0 1-32 32zM117.333333 224A32.426667 32.426667 0 0 1 85.333333 192V117.333333A32.426667 32.426667 0 0 1 117.333333 85.333333H192a32.426667 32.426667 0 0 1 32 32 32.426667 32.426667 0 0 1-32 32h-42.666667v42.666667a32.426667 32.426667 0 0 1-32 32z"
    p-id="5119"></path>
  <path d="M416 85.333333m32 0l128 0q32 0 32 32l0 0q0 32-32 32l-128 0q-32 0-32-32l0 0q0-32 32-32Z"
    p-id="5120"></path>
  <path
    d="M906.666667 224a32.426667 32.426667 0 0 1-32-32v-42.666667h-42.666667a32.426667 32.426667 0 0 1-32-32 32.426667 32.426667 0 0 1 32-32h74.666667a32.426667 32.426667 0 0 1 32 32V192a32.426667 32.426667 0 0 1-32 32z"
    p-id="5121"></path>
  <path d="M874.666667 416m32 0l0 0q32 0 32 32l0 128q0 32-32 32l0 0q-32 0-32-32l0-128q0-32 32-32Z"
    p-id="5122"></path>
  <path
    d="M565.333333 341.333333h-362.666666a116.906667 116.906667 0 0 0-108.373334 72.533334A112.213333 112.213333 0 0 0 85.333333 458.666667v362.666666A117.333333 117.333333 0 0 0 202.666667 938.666667h362.666666a112.213333 112.213333 0 0 0 44.8-8.96 116.906667 116.906667 0 0 0 72.533334-108.373334v-362.666666A117.333333 117.333333 0 0 0 565.333333 341.333333z m53.333334 480a53.333333 53.333333 0 0 1-53.333334 53.333334h-362.666666a53.333333 53.333333 0 0 1-53.333334-53.333334v-362.666666A53.333333 53.333333 0 0 1 202.666667 405.333333h362.666666a53.333333 53.333333 0 0 1 53.333334 53.333334z"
    p-id="5123"></path>
</svg>
