<svg class="icon"
  style="width: 1em;height: 1em;vertical-align: middle;fill: currentColor;overflow: hidden;"
  viewBox="0 0 1024 1024" version="1.1" xmlns="http://www.w3.org/2000/svg" p-id="9679">
  <path
    d="M873.130667 901.558857H153.161143a34.620952 34.620952 0 0 1-33.743238-33.792V147.846095a34.620952 34.620952 0 0 1 33.743238-33.792h719.969524a34.620952 34.620952 0 0 1 33.743238 33.792v719.920762a34.620952 34.620952 0 0 1-33.743238 33.792zM173.738667 847.238095h678.863238V168.374857H173.738667v678.863238z"
    p-id="9680"></path>
  <path
    d="M755.712 410.770286a30.573714 30.573714 0 0 1-30.037333-30.037334V295.302095h-85.479619a30.573714 30.573714 0 0 1-30.037334-30.037333c0-16.188952 13.897143-30.037333 30.037334-30.037333h115.516952c16.14019 0 30.037333 13.848381 30.037333 30.037333v115.46819a30.573714 30.573714 0 0 1-30.037333 30.037334z m-485.13219 0a30.573714 30.573714 0 0 1-29.988572-30.037334V265.264762c0-16.188952 13.848381-30.037333 29.988572-30.037333h115.565714c16.091429 0 29.988571 13.848381 29.988571 30.037333a30.573714 30.573714 0 0 1-30.037333 30.037333H300.617143v85.430857a30.573714 30.573714 0 0 1-30.037333 30.037334z m115.565714 369.615238h-115.565714a30.573714 30.573714 0 0 1-29.988572-30.037334V634.88c0-16.188952 13.848381-30.037333 29.988572-30.037333 16.188952 0 30.037333 13.848381 30.037333 30.037333v85.430857h85.479619c16.188952 0 30.037333 13.897143 30.037333 30.037333a30.573714 30.573714 0 0 1-30.037333 30.037334z m369.566476 0h-115.516952a30.573714 30.573714 0 0 1-30.037334-30.037334c0-16.14019 13.897143-30.037333 30.037334-30.037333h85.479619V634.88c0-16.188952 13.848381-30.037333 30.037333-30.037333 16.14019 0 30.037333 13.848381 30.037333 30.037333v115.46819a30.573714 30.573714 0 0 1-30.037333 30.037334z"
    p-id="9681"></path>
</svg>
